<?xml version="1.0" standalone="no"?>
<!DOCTYPE svg PUBLIC "-//W3C//DTD SVG 20010904//EN"
 "http://www.w3.org/TR/2001/REC-SVG-20010904/DTD/svg10.dtd">
<svg version="1.0" xmlns="http://www.w3.org/2000/svg"
 width="222.000000pt" height="222.000000pt" viewBox="0 0 222.000000 222.000000"
 preserveAspectRatio="xMidYMid meet">
<metadata>
Created by potrace 1.14, written by Peter Selinger 2001-2017
</metadata>
<g transform="translate(0.000000,222.000000) scale(0.100000,-0.100000)"
fill="#000000" stroke="none">
<path d="M139 2149 c-6 -4 -9 -11 -6 -15 2 -5 1 -19 -3 -30 -7 -17 -15 -20
-34 -17 -15 3 -26 1 -27 -6 -5 -53 -4 -56 31 -61 30 -4 34 -9 35 -35 0 -27 3
-30 30 -30 26 0 30 4 33 32 3 28 7 32 35 35 29 3 32 6 33 36 1 31 -1 33 -30
30 -27 -3 -31 -7 -34 -36 -3 -31 -6 -33 -35 -30 -28 3 -32 7 -35 36 -3 30 -1
32 21 28 34 -6 49 7 45 39 -2 21 -9 29 -25 30 -12 1 -28 -2 -34 -6z"/>
<path d="M1017 2152 c-16 -3 -17 -73 -15 -1000 l3 -997 530 0 530 0 0 999 0
1000 -516 0 c-283 1 -523 0 -532 -2z m533 -223 c38 -22 66 -59 80 -109 8 -28
7 -30 -21 -31 -37 -1 -115 -1 -131 0 -12 1 -15 55 -9 144 1 23 35 22 81 -4z
m-115 -91 l0 -83 80 -1 c71 0 80 -2 83 -20 1 -10 -8 -37 -21 -59 -64 -113
-210 -116 -284 -6 -39 58 -28 156 23 203 27 24 76 48 99 48 18 0 20 -7 20 -82z
m350 -384 c20 -37 37 -44 77 -31 21 7 33 4 53 -10 22 -16 25 -23 20 -59 -7
-52 0 -69 36 -84 25 -11 29 -18 29 -50 0 -32 -4 -39 -30 -50 -34 -14 -44 -36
-35 -83 6 -28 2 -39 -16 -56 -24 -22 -33 -24 -64 -12 -28 11 -61 -6 -75 -39
-9 -22 -17 -27 -46 -27 -28 0 -38 6 -50 28 -20 40 -45 51 -85 37 -30 -10 -34
-9 -55 16 -19 21 -22 31 -14 52 12 30 3 74 -14 74 -7 0 -21 9 -33 19 -27 26
-20 79 13 91 34 13 48 45 35 81 -8 25 -7 33 12 55 20 23 27 25 57 17 39 -10
70 -7 70 8 0 28 33 57 64 57 27 0 36 -6 51 -34z m-379 -680 l64 -46 72 42 71
43 18 -24 c9 -13 15 -27 13 -31 -5 -8 -139 -89 -166 -100 -12 -5 -36 7 -78 38
l-61 45 -27 -32 c-15 -17 -38 -43 -52 -58 -14 -16 -40 -47 -59 -69 -37 -47
-50 -51 -74 -24 -16 18 -13 23 59 108 113 132 133 154 145 154 6 0 39 -21 75
-46z m-40 -302 c1 -193 0 -195 -48 -184 -16 4 -18 21 -18 181 0 98 2 180 5
182 2 3 17 4 32 3 l28 -1 1 -181z m265 108 c0 -3 1 -69 2 -147 l2 -141 -32 -4
c-19 -2 -33 1 -34 7 -1 14 -1 256 0 278 1 13 8 17 31 15 17 -1 30 -5 31 -8z
m-131 -160 c0 -114 -2 -129 -17 -132 -48 -11 -51 -4 -48 130 1 70 3 130 4 133
0 3 15 4 31 1 l30 -4 0 -128z m-269 43 c0 -16 2 -60 2 -100 l2 -71 -32 -4
c-19 -2 -33 1 -34 7 -1 14 -1 134 0 168 1 23 5 27 31 27 26 0 30 -4 31 -27z"/>
<path d="M1669 1292 c-29 -26 -34 -36 -33 -73 1 -35 7 -48 34 -72 28 -25 38
-28 74 -24 54 7 86 44 86 97 0 53 -32 90 -86 97 -36 5 -46 1 -75 -25z"/>
<path d="M570 1925 c0 -33 -2 -35 -34 -35 -33 0 -34 -2 -32 -32 2 -26 7 -33
24 -34 12 -1 27 -2 32 -3 6 0 10 -14 10 -30 0 -22 5 -30 24 -33 31 -6 42 1 43
31 2 28 18 40 44 34 10 -3 20 0 20 6 5 53 4 56 -29 59 -21 2 -32 -1 -33 -10
-1 -7 -2 -22 -3 -32 -1 -14 -10 -20 -33 -22 -31 -2 -33 -1 -33 32 0 32 2 34
34 34 33 0 35 1 33 35 -2 32 -4 35 -34 35 -31 0 -33 -2 -33 -35z"/>
<path d="M370 1649 c-86 -18 -131 -129 -80 -200 l19 -27 -58 -4 c-68 -5 -111
-31 -135 -82 -14 -29 -16 -64 -14 -208 l3 -173 45 0 45 0 5 155 c5 144 10 180
28 180 4 0 7 -181 7 -402 l0 -402 68 0 c52 -1 71 3 76 14 4 8 6 113 5 233 -1
197 1 217 16 217 15 0 17 -21 16 -230 -1 -198 1 -230 14 -231 8 0 42 -1 75 -1
l60 -1 0 406 c0 264 4 407 10 408 6 0 24 2 40 4 17 1 93 6 169 9 77 3 143 10
146 16 3 5 5 27 5 47 l-2 38 -222 3 -222 2 20 27 c25 31 28 97 7 138 -26 51
-86 77 -146 64z"/>
<path d="M219 418 c-19 -38 -94 -205 -109 -244 l-8 -21 298 0 299 0 -13 31
c-75 175 -120 266 -135 267 -9 1 -83 2 -165 3 l-148 1 -19 -37z"/>
</g>
</svg>
